<mxfile host="app.diagrams.net" modified="2021-02-21T09:20:56.507Z" agent="5.0 (Windows)" etag="XLAkxMJGS8PMTBVlntaP" version="14.1.8" type="github">
  <diagram id="dARw1I-tyCDDxnHPdXPz" name="Page-1">
    <mxGraphModel dx="981" dy="546" grid="1" gridSize="10" guides="1" tooltips="1" connect="1" arrows="1" fold="1" page="1" pageScale="1" pageWidth="827" pageHeight="1169" math="0" shadow="0">
      <root>
        <mxCell id="0" />
        <mxCell id="1" parent="0" />
        <mxCell id="QMmgmNxQZZJa730i63d_-1" value="&lt;font style=&quot;font-size: 18px&quot;&gt;4. Компоновка объектов&lt;/font&gt;" style="text;html=1;align=center;verticalAlign=middle;resizable=0;points=[];autosize=1;" vertex="1" parent="1">
          <mxGeometry x="20" y="120" width="220" height="20" as="geometry" />
        </mxCell>
        <mxCell id="QMmgmNxQZZJa730i63d_-2" value="Инкапсуляция помогает работать с многопоточностью" style="text;html=1;align=center;verticalAlign=middle;resizable=0;points=[];autosize=1;" vertex="1" parent="1">
          <mxGeometry x="20" y="180" width="330" height="20" as="geometry" />
        </mxCell>
        <mxCell id="QMmgmNxQZZJa730i63d_-3" value="&lt;div align=&quot;left&quot;&gt;Проектирование потокобезопасного класса: &lt;br&gt;&lt;/div&gt;&lt;div align=&quot;left&quot;&gt;1. идентификация переменных, формирующих состояние объекта. (определить состояние)&lt;br&gt;&lt;/div&gt;&lt;div align=&quot;left&quot;&gt;2. идентификация инвариантов, ограничивающих переменные состояния. &lt;br&gt;&lt;/div&gt;&lt;div align=&quot;left&quot;&gt;3. создание политики для управления конкурентным доступом к состоянию объекта&lt;br&gt;&lt;/div&gt;" style="text;html=1;align=left;verticalAlign=middle;resizable=0;points=[];autosize=1;" vertex="1" parent="1">
          <mxGeometry x="30" y="230" width="540" height="60" as="geometry" />
        </mxCell>
        <mxCell id="QMmgmNxQZZJa730i63d_-4" value="Политики синхронизации (synchronization policy). (часть документации потокобезопасного метода. @GuardedBy(&quot;this&quot;)" style="text;html=1;align=center;verticalAlign=middle;resizable=0;points=[];autosize=1;" vertex="1" parent="1">
          <mxGeometry x="30" y="320" width="690" height="20" as="geometry" />
        </mxCell>
      </root>
    </mxGraphModel>
  </diagram>
</mxfile>
